<svg width="15" height="15" viewBox="0 0 15 15" fill="none" xmlns="http://www.w3.org/2000/svg">
<path d="M6.22843 14.8919H13.5574C13.94 14.8915 14.3067 14.7393 14.5771 14.4688C14.8476 14.1982 14.9997 13.8315 15 13.4489V6.12037C14.9995 5.73795 14.8474 5.37133 14.577 5.10097C14.3065 4.8306 13.9398 4.67856 13.5574 4.67822H6.22886C5.84648 4.67856 5.47986 4.83061 5.20948 5.10099C4.9391 5.37137 4.78706 5.73799 4.78671 6.12037V13.4489C4.78694 13.8314 4.93887 14.1981 5.20916 14.4686C5.47944 14.7391 5.84601 14.8914 6.22843 14.8919ZM13.5574 5.74965C13.6558 5.74965 13.7501 5.78869 13.8197 5.8582C13.8893 5.92771 13.9285 6.02201 13.9286 6.12037V13.4489C13.9286 13.5474 13.8895 13.6419 13.8199 13.7115C13.7503 13.7812 13.6559 13.8204 13.5574 13.8205H6.22886C6.13046 13.8203 6.03617 13.781 5.96667 13.7114C5.89717 13.6417 5.85814 13.5473 5.85814 13.4489V6.12037C5.85814 6.02205 5.8972 5.92775 5.96672 5.85823C6.03624 5.78871 6.13054 5.74965 6.22886 5.74965H13.5574Z" fill="#07B49B"/>
<path d="M1.65684 10.3195H5.31984C5.46192 10.3195 5.59818 10.2631 5.69864 10.1626C5.79911 10.0622 5.85555 9.92591 5.85555 9.78383C5.85555 9.64175 5.79911 9.50549 5.69864 9.40502C5.59818 9.30455 5.46192 9.24811 5.31984 9.24811H1.65684C1.55844 9.248 1.4641 9.20886 1.39452 9.13928C1.32495 9.0697 1.28581 8.97537 1.28569 8.87697V1.55054C1.28581 1.45218 1.32496 1.35789 1.39455 1.28838C1.46414 1.21887 1.55848 1.17983 1.65684 1.17983H8.98541C9.08377 1.17983 9.1781 1.21887 9.24769 1.28838C9.31728 1.35789 9.35644 1.45218 9.35655 1.55054V5.21397C9.35655 5.35605 9.41299 5.49231 9.51346 5.59278C9.61392 5.69324 9.75018 5.74968 9.89226 5.74968C10.0343 5.74968 10.1706 5.69324 10.2711 5.59278C10.3715 5.49231 10.428 5.35605 10.428 5.21397V1.55054C10.4275 1.1685 10.2757 0.802205 10.0057 0.531898C9.73571 0.261591 9.36959 0.109305 8.98755 0.108398H1.65684C1.27442 0.108739 0.90776 0.260774 0.637311 0.531142C0.366862 0.80151 0.214718 1.16813 0.214264 1.55054V8.87911C0.215284 9.2612 0.367665 9.62731 0.638041 9.89728C0.908415 10.1673 1.27475 10.3191 1.65684 10.3195Z" fill="#07B49B"/>
</svg>
