<svg width="14" height="15" viewBox="0 0 14 15" fill="none" xmlns="http://www.w3.org/2000/svg">
<path d="M6.39307 10C6.32739 10.0001 6.26235 9.98485 6.20166 9.95523C6.14098 9.92561 6.08584 9.88217 6.0394 9.82739C5.99296 9.77261 5.95613 9.70757 5.93102 9.63599C5.90591 9.5644 5.89301 9.48768 5.89307 9.41021V0.58979C5.89307 0.433368 5.94574 0.283352 6.03951 0.172745C6.13328 0.0621384 6.26046 0 6.39307 0C6.52567 0 6.65285 0.0621384 6.74662 0.172745C6.84039 0.283352 6.89307 0.433368 6.89307 0.58979V9.41021C6.89307 9.56663 6.84039 9.71665 6.74662 9.82725C6.65285 9.93786 6.52567 10 6.39307 10Z" fill="#8F8F8F"/>
<path d="M6.60354 10.5149C6.42349 10.5152 6.24516 10.4799 6.0788 10.4111C5.91243 10.3423 5.76131 10.2412 5.63411 10.1138L2.74082 7.22052C2.6404 7.1201 2.58398 6.9839 2.58398 6.84188C2.58398 6.69986 2.6404 6.56366 2.74082 6.46324C2.84125 6.36281 2.97745 6.3064 3.11947 6.3064C3.26148 6.3064 3.39769 6.36281 3.49811 6.46324L6.39139 9.35652C6.41925 9.38438 6.45233 9.40648 6.48873 9.42156C6.52513 9.43664 6.56414 9.4444 6.60354 9.4444C6.64294 9.4444 6.68195 9.43664 6.71835 9.42156C6.75475 9.40648 6.78782 9.38438 6.81568 9.35652L9.70897 6.46324C9.80998 6.36562 9.94528 6.31159 10.0857 6.31277C10.2262 6.31395 10.3606 6.37025 10.4599 6.46955C10.5593 6.56885 10.6157 6.70319 10.6169 6.84366C10.6182 6.98412 10.5642 7.11946 10.4667 7.22052L7.57297 10.1138C7.44574 10.2412 7.29461 10.3422 7.12825 10.411C6.96189 10.4799 6.78358 10.5152 6.60354 10.5149Z" fill="#8F8F8F"/>
<path d="M12.1319 14.5983H1.2892C0.947409 14.5979 0.619735 14.4481 0.378053 14.1818C0.13637 13.9156 0.000411796 13.5546 0 13.178V9.43318C0 9.29109 0.0512319 9.15483 0.142425 9.05437C0.233619 8.9539 0.357303 8.89746 0.48627 8.89746C0.615237 8.89746 0.738922 8.9539 0.830115 9.05437C0.921308 9.15483 0.97254 9.29109 0.97254 9.43318V13.178C0.972643 13.2705 1.00604 13.3592 1.0654 13.4246C1.12476 13.49 1.20525 13.5268 1.2892 13.5269H12.1319C12.2158 13.5268 12.2963 13.49 12.3557 13.4246C12.415 13.3592 12.4484 13.2705 12.4485 13.178V9.43318C12.4485 9.29109 12.4997 9.15483 12.5909 9.05437C12.6821 8.9539 12.8058 8.89746 12.9348 8.89746C13.0638 8.89746 13.1874 8.9539 13.2786 9.05437C13.3698 9.15483 13.4211 9.29109 13.4211 9.43318V13.178C13.4206 13.5546 13.2847 13.9156 13.043 14.1818C12.8013 14.4481 12.4736 14.5979 12.1319 14.5983Z" fill="#8F8F8F"/>
</svg>
