<svg width="32" height="31" viewBox="0 0 32 31" fill="none" xmlns="http://www.w3.org/2000/svg">
<ellipse cx="15.645" cy="15.4134" rx="15.645" ry="15.4134" fill="#FF1654"/>
<path d="M14.9309 10.6636L16.762 8.85963C17.9199 7.85151 19.6433 7.95763 20.6666 9.07187C21.6091 10.08 21.6091 11.6452 20.6666 12.6799L18.8086 14.4839L19.3741 15.041L21.2321 13.2105C22.6054 11.8575 22.5516 9.62899 21.1513 8.27598C19.778 6.97604 17.5968 6.97604 16.2235 8.27598L14.3654 10.08C12.9921 11.4595 12.9921 13.6615 14.3654 15.041L14.9309 14.4839C13.8807 13.4227 13.8807 11.7248 14.9309 10.6636Z" fill="white"/>
<path d="M14.6077 22.7612L16.4657 20.9572C17.8391 19.5777 17.8391 17.3757 16.4657 16.0227L15.9002 16.5798C16.9774 17.641 16.9774 19.3389 15.9002 20.4001L14.0422 22.2041C12.9651 23.2652 11.2417 23.2652 10.1645 22.2041C9.08742 21.1429 9.08742 19.445 10.1645 18.3838L12.0226 16.5798L11.4571 16.0227L9.62598 17.8267C8.19879 19.1532 8.11801 21.3551 9.46441 22.7612C10.8108 24.1672 13.0459 24.2468 14.473 22.9204C14.5269 22.8408 14.5808 22.8142 14.6077 22.7612Z" fill="white"/>
<path d="M17.9588 13.625L17.3876 13.0623L12.932 17.4519L13.5032 18.0146L17.9588 13.625Z" fill="white"/>
</svg>
